0
SECTION
2
HEADER
9
$INSUNITS
70
6
9
$ACADVER
1
AC1014
9
$HANDSEED
5
FFFF
0
ENDSEC
0
SECTION
2
TABLES
0
TABLE
2
VPORT
5
8
100
AcDbSymbolTable
0
ENDTAB
0
TABLE
2
LTYPE
5
5
100
AcDbSymbolTable
0
LTYPE
5
14
100
AcDbSymbolTableRecord
100
AcDbLinetypeTableRecord
2
BYBLOCK
70
0
0
LTYPE
5
15
100
AcDbSymbolTableRecord
100
AcDbLinetypeTableRecord
2
BYLAYER
70
0
0
ENDTAB
0
TABLE
2
LAYER
5
2
100
AcDbSymbolTable
70
2
0
LAYER
5
50
100
AcDbSymbolTableRecord
100
AcDbLayerTableRecord
2
0
70
0
6
CONTINUOUS
0
ENDTAB
0
TABLE
2
STYLE
5
3
100
AcDbSymbolTable
70
1
0
STYLE
5
11
100
AcDbSymbolTableRecord
100
AcDbTextStyleTableRecord
2
STANDARD
70
0
0
ENDTAB
0
TABLE
2
VIEW
5
6
100
AcDbSymbolTable
70
0
0
ENDTAB
0
TABLE
2
UCS
5
7
100
AcDbSymbolTable
70
0
0
ENDTAB
0
TABLE
2
APPID
5
9
100
AcDbSymbolTable
70
2
0
APPID
5
12
100
AcDbSymbolTableRecord
100
AcDbRegAppTableRecord
2
ACAD
70
0
0
ENDTAB
0
TABLE
2
DIMSTYLE
5
A
100
AcDbSymbolTable
70
1
0
ENDTAB
0
TABLE
2
BLOCK_RECORD
5
1
100
AcDbSymbolTable
70
1
0
BLOCK_RECORD
5
1F
100
AcDbSymbolTableRecord
100
AcDbBlockTableRecord
2
*MODEL_SPACE
0
BLOCK_RECORD
5
1B
100
AcDbSymbolTableRecord
100
AcDbBlockTableRecord
2
*PAPER_SPACE
0
ENDTAB
0
ENDSEC
0
SECTION
2
BLOCKS
0
BLOCK
5
20
100
AcDbEntity
100
AcDbBlockBegin
2
*MODEL_SPACE
0
ENDBLK
5
21
100
AcDbEntity
100
AcDbBlockEnd
0
BLOCK
5
1C
100
AcDbEntity
100
AcDbBlockBegin
2
*PAPER_SPACE
0
ENDBLK
5
1D
100
AcDbEntity
100
AcDbBlockEnd
0
ENDSEC
0
SECTION
2
ENTITIES
0
LWPOLYLINE
5
100
100
AcDbEntity
8
0
100
AcDbPolyline
90
44
70
1
43
0.0
10
23.5
20
7.679898243181837
10
13.762969089399292
20
7.679898243181837
10
13.800000000000001
20
5.3500000000000005
10
10.654116999303181
20
5.2999999999999998
10
10.654116999303181
20
8.8688265043766812
10
5.9249999999999998
20
8.7652803675730002
10
5.9249999999999998
20
21.737718527331111
10
10.899926234762297
20
21.737718527331111
10
10.903119765023659
20
22.056504067863766
10
11.074251108591982
20
22.054789708036029
10
11.048272710085682
20
19.461566180390733
10
26.775430349959837
20
19.304014637230459
10
26.824999999999999
20
22.75
10
23.138009056830455
20
22.803036455908586
10
23.150000000000002
20
24
10
18.462628294938639
20
24.11058546453453
10
18.449999999999999
20
22.850000000000001
10
10.047057108899551
20
22.934179013773207
10
10.050000000000001
20
23.050000000000001
10
4.839856957444117
20
23.123915332455724
10
4.8500000000000005
20
21.25
10
4.1223803739414357
20
21.268488059822303
10
3.9607749885136618
20
21.328196926073517
10
3.0075174684377295
20
21.32303717769781
10
3
20
20.300000000000001
10
4.8246398964709805
20
20.343708423638592
10
4.7986901347209816
20
18.372086514727897
10
1
20
18.400000000000002
10
0.96355900376535608
20
17.28117705082682
10
4.8246398964709805
20
17.302076131552678
10
4.8311848862072813
20
16.092896878872768
10
4.449484846430332
20
16.090830830487345
10
4.5113135102010871
20
4.6680570042934688
10
4.449484846430332
20
4.5419081579293969
10
4.4807331344864041
20
2.6078723558294796
10
4.5894850751206402
20
2.4793473350799284
10
4.5950836238145261
20
2.1328389569459034
10
6
20
2.1555382428485066
10
6
20
3.6000000000000001
10
10.620080020983483
20
3.6746468039428444
10
10.800172399380912
20
3.8270326625868236
10
13.575000000000001
20
3.8999999999999999
10
13.6
20
4.125
10
23.394739270779674
20
4.1711515843466955
0
ENDSEC
0
SECTION
2
OBJECTS
0
DICTIONARY
5
C
100
AcDbDictionary
3
ACAD_GROUP
350
D
3
ACAD_MLINESTYLE
350
17
0
DICTIONARY
5
D
100
AcDbDictionary
0
DICTIONARY
5
1A
330
C
100
AcDbDictionary
0
DICTIONARY
5
17
100
AcDbDictionary
0
ENDSEC
0
EOF
